:SAMPLES-PER-SECOND 30
:FULLY-SPECIFIED
:DEGREES
115
root  34.90988664 36.51560385 -14.60794914 11.26488304 9.27691555 4.015878201
lowerback  -7.966799736 3.064400196 3.137049675
upperback  -4.351640224 3.506530046 -4.60642004
thorax  0.429708004 1.49416995 -6.266660213
lowerneck  -15.67860031 0.03470769897 2.074300051
upperneck  10.94950008 -1.432369947 5.822239876
head  5.927199841 -0.2139929831 1.372320056
lclavicle  0 -4.497500157e-015 -2.743230041e-014
lhumerus  -44.25009918 27.08110046 67.37400055
lradius  -0.4922153652 -6.507048965e-006 26.91589737
lwrist  4.824992743e-007 -3.790274832e-007 -32.50360107
lhand  -3.51930109e-031 -36.90190125 -10.64080048
lfingers  90 7.125020027 -90
lthumb  94.80967712 -25.47720909 101.0679169
rclavicle  0 -4.497500157e-015 -2.743230041e-014
rhumerus  58.37129974 0.9545563459 -52.49560165
rradius  -5.16745672e-007 2.214343908e-008 67.2519989
rwrist  1.129822067e-006 0.001802438172 -172.4259949
rhand  -3.150693577e-031 4.392399788 -5.688370228
rfingers  -90 -7.125020027 -90
rthumb  -84.13249969 -10.12464046 -59.68947601
rfemur  -13.44287491 11.73516083 14.5312748
rtibia  -2.157659769 2.08017993 22.4763298
rfoot  -1.78877449 -15.40749168 -43.5566864
rtoes  4.156970501 19.5879631 -102.2363129
lfemur  -11.09186554 -21.23109245 -18.67450333
ltibia  3.682131052 2.283450603 14.05304813
lfoot  0.7069193125 -29.24845123 30.32064629
ltoes  -8.470718384 -18.18449783 -115.5112228
116
root  34.90348275 36.51386772 -14.61412174 11.28733063 9.498338699 4.062001705
lowerback  -7.973759651 3.10036993 3.189919949
upperback  -4.35958004 3.551440001 -4.622910023
thorax  0.4352230132 1.516049981 -6.309969902
lowerneck  -15.71720028 -0.04807550088 2.019429922
upperneck  10.97459984 -1.542019963 5.865049839
head  5.944729805 -0.2651929855 1.384469986
lclavicle  0 -4.497500157e-015 -2.743230041e-014
lhumerus  -44.19660187 27.0223999 67.4559021
lradius  -0.4923275411 -6.507048965e-006 26.95490074
lwrist  4.824992743e-007 -3.790274832e-007 -32.22700119
lhand  -3.546919171e-031 -36.84749985 -10.31579971
lfingers  90 7.125020027 -90
lthumb  94.71563721 -25.16011238 100.9804001
rclavicle  0 -4.497500157e-015 -2.743230041e-014
rhumerus  59.13479996 0.8059239984 -52.24919891
rradius  -5.16745672e-007 2.214343908e-008 66.39630127
rwrist  1.129822067e-006 0.001802438172 -171.9940033
rhand  -3.159756845e-031 4.399310112 -5.553919792
rfingers  -90 -7.125020027 -90
rthumb  -84.06176758 -10.24101543 -59.67051315
rfemur  -13.46726036 11.61770821 14.55774307
rtibia  -2.213773251 2.06504941 22.56249237
rfoot  -1.860082984 -15.41293716 -43.67168045
rtoes  4.15977335 19.58862686 -102.2446747
lfemur  -11.1200304 -21.34192276 -18.68024254
ltibia  3.708824635 2.304162264 14.03129101
lfoot  0.7179280519 -29.27804375 30.24442291
ltoes  -8.505496979 -18.16868973 -115.6227112
117
root  34.89739726 36.51082797 -14.62214613 11.2896595 9.729611397 4.129686356
lowerback  -8.03398037 3.123990059 3.26398015
upperback  -4.350379944 3.578579903 -4.64109993
thorax  0.4869610071 1.530480027 -6.366290092
lowerneck  -15.79529953 -0.1101370007 1.993319988
upperneck  10.99580002 -1.631600022 5.905220032
head  5.967130184 -0.3052020669 1.393100023
lclavicle  0 -4.497500157e-015 -2.743230041e-014
lhumerus  -44.08280182 27.02759743 67.50370026
lradius  -0.4924463928 -6.507048965e-006 26.9211998
lwrist  4.824992743e-007 -3.790274832e-007 -32.05939865
lhand  -3.53913306e-031 -36.76279831 -10.4211998
lfingers  90 7.125020027 -90
lthumb  94.69857025 -25.26647568 100.8994293
rclavicle  0 -4.497500157e-015 -2.743230041e-014
rhumerus  59.96329498 0.6688909531 -52.24319839
rradius  -5.16745672e-007 2.214343908e-008 65.48410034
rwrist  1.129822067e-006 0.001802438172 -171.7400055
rhand  -3.157733921e-031 4.284060001 -5.584770203
rfingers  -90 -7.125020027 -90
rthumb  -84.10736847 -10.20873928 -59.7862854
rfemur  -13.49119473 11.5132761 14.57506943
rtibia  -2.291148186 2.066601753 22.69423676
rfoot  -1.932355285 -15.36175251 -43.76415253
rtoes  4.142246246 19.58929634 -102.1923828
lfemur  -11.09665585 -21.42822075 -18.7343483
ltibia  3.75675559 2.318053484 13.96931171
lfoot  0.7215819955 -29.29174995 30.12382889
ltoes  -8.499914169 -18.17123222 -115.6048126
118
root  34.89439656 36.50901975 -14.62793425 11.31552029 9.954847336 4.189987659
lowerback  -8.034890175 3.170469999 3.363840103
upperback  -4.35653019 3.63383007 -4.697599888
thorax  0.497823 1.55637002 -6.478240013
lowerneck  -15.80900002 -0.1891610026 2.042099953
upperneck  10.98250008 -1.752279997 5.914299965
head  5.967810154 -0.36213395 1.376260042
lclavicle  0 -4.497500157e-015 -2.743230041e-014
lhumerus  -44.0196991 27.0345993 67.44529724
lradius  -0.492572397 -6.507048965e-006 26.87190247
lwrist  4.824992743e-007 -3.790274832e-007 -32.2519989
lhand  -3.527751119e-031 -36.7322998 -10.56270027
lfingers  90 7.125020027 -90
lthumb  94.71398163 -25.40646553 100.8795395
rclavicle  0 -4.497500157e-015 -2.743230041e-014
rhumerus  60.70009995 0.4953418374 -52.25740051
rradius  -5.16745672e-007 2.214343908e-008 64.53099823
rwrist  1.129822067e-006 0.001802438172 -171.2920074
rhand  -3.151764372e-031 4.401539803 -5.672420025
rfingers  -90 -7.125020027 -90
rthumb  -84.12197876 -10.13885975 -59.67910767
rfemur  -13.5089016 11.4361372 14.58309269
rtibia  -2.35367918 2.078592062 22.77620316
rfoot  -1.989064693 -15.27151108 -43.88801575
rtoes  4.104270458 19.59000778 -102.0791016
lfemur  -11.15107632 -21.53863716 -18.75626183
ltibia  3.765711546 2.325493813 13.98711967
lfoot  0.7224159241 -29.32034111 29.99089241
ltoes  -8.497570992 -18.17154884 -115.5852432
119
root  34.8929608 36.50745782 -14.63542548 11.3231802 10.14380455 4.217044353
lowerback  -8.046850204 3.215820074 3.352840424
upperback  -4.378940105 3.692869902 -4.713550091
thorax  0.4895929992 1.584519982 -6.483029842
lowerneck  -15.81700039 -0.2613039911 2.063430071
upperneck  11.00930023 -1.852079988 5.88725996
head  5.97935009 -0.4109190702 1.35461998
lclavicle  0 -4.497500157e-015 -2.743230041e-014
lhumerus  -44.0719986 27.0916996 67.40409851
lradius  -0.4927058518 -6.507048965e-006 26.9090004
lwrist  4.824992743e-007 -3.790274832e-007 -32.52610016
lhand  -3.524589536e-031 -36.73839951 -10.60000038
lfingers  90 7.125020027 -90
lthumb  94.72465515 -25.4428997 100.889473
rclavicle  0 -4.497500157e-015 -2.743230041e-014
rhumerus  61.40359879 0.431186527 -52.31480026
rradius  -5.16745672e-007 2.214343908e-008 63.63669968
rwrist  1.129822067e-006 0.001802438172 -170.6199951
rhand  -3.155077387e-031 4.394899845 -5.62334013
rfingers  -90 -7.125020027 -90
rthumb  -84.09854889 -10.18086147 -59.68124008
rfemur  -13.50857639 11.32692623 14.61372566
rtibia  -2.402472734 2.079609394 22.81422806
rfoot  -2.022506714 -15.21554184 -43.97323227
rtoes  4.107004166 19.59080124 -102.0872574
lfemur  -11.29473019 -21.6709938 -18.70868111
ltibia  3.698683262 2.303897381 14.16572762
lfoot  0.7212722301 -29.35826683 29.89027023
ltoes  -8.496530533 -18.17104721 -115.6345825
120
root  34.88978288 36.50584183 -14.64466485 11.3461895 10.33636761 4.250961781
lowerback  -8.081500053 3.246999979 3.364390135
upperback  -4.382929802 3.733639956 -4.711190224
thorax  0.5106880069 1.605540037 -6.481599808
lowerneck  -15.78750038 -0.3334600031 1.968659997
upperneck  10.9659996 -1.933640003 5.949659824
head  5.963860035 -0.4514819682 1.381680131
lclavicle  0 -4.497500157e-015 -2.743230041e-014
lhumerus  -44.06740189 27.14599991 67.42379761
lradius  -0.4927058518 -6.507048965e-006 26.88629723
lwrist  4.824992743e-007 -3.790274832e-007 -32.52970123
lhand  -3.529809311e-031 -36.74430084 -10.53619957
lfingers  90 7.125020027 -90
lthumb  94.71405792 -25.38007736 100.8900146
rclavicle  0 -4.497500157e-015 -2.743230041e-014
rhumerus  62.11040115 0.3717330992 -52.10720062
rradius  -5.16745672e-007 2.214343908e-008 62.7887001
rwrist  1.129822067e-006 0.001802438172 -170.0879974
rhand  -3.164127258e-031 4.458809853 -5.488679886
rfingers  -90 -7.125020027 -90
rthumb  -84.01281738 -10.30018234 -59.60629272
rfemur  -13.56226063 11.20082951 14.64270401
rtibia  -2.466562986 2.08204937 22.91508484
rfoot  -2.076372385 -15.16978645 -44.02850723
rtoes  4.108068943 19.59170914 -102.0904312
lfemur  -11.41621208 -21.77124405 -18.6757946
ltibia  3.65988493 2.305032492 14.27680111
lfoot  0.7189934254 -29.40507698 29.79255104
ltoes  -8.496743202 -18.16996574 -115.6115799
121
root  34.8846796 36.50428291 -14.6522522 11.37493515 10.55955219 4.309402943
lowerback  -8.095709801 3.290369987 3.431519985
upperback  -4.402289867 3.785599947 -4.739550114
thorax  0.5114340186 1.629609942 -6.544919968
lowerneck  -15.78960037 -0.4161790013 1.934010029
upperneck  10.99260044 -2.048629999 6.000380039
head  5.976290226 -0.5047850609 1.392290115
lclavicle  0 -4.497500157e-015 -2.743230041e-014
lhumerus  -44.01549911 27.07780075 67.43080139
lradius  -0.4927058518 -6.507048965e-006 26.82740211
lwrist  4.824992743e-007 -3.790274832e-007 -32.59809875
lhand  -3.531160125e-031 -36.8307991 -10.50790024
lfingers  90 7.125020027 -90
lthumb  94.74837494 -25.34933472 100.9798584
rclavicle  0 -4.497500157e-015 -2.743230041e-014
rhumerus  62.70660019 0.2077495903 -52.16030121
rradius  -5.16745672e-007 2.214343908e-008 61.94309998
rwrist  1.129822067e-006 0.001802438172 -170.0939941
rhand  -3.166968842e-031 4.882160187 -5.443260193
rfingers  -90 -7.125020027 -90
rthumb  -83.87811279 -10.35982418 -59.18690491
rfemur  -13.63085175 11.09796333 14.66120243
rtibia  -2.54388833 2.106732368 23.064991
rfoot  -2.15026021 -15.07830048 -44.10547256
rtoes  4.097596645 19.59276581 -102.0591965
lfemur  -11.44573402 -21.86104202 -18.69596672
ltibia  3.688947439 2.340028524 14.23931408
lfoot  0.7164216638 -29.45916748 29.70499802
ltoes  -8.498161316 -18.16854286 -115.5991898
